<svg xmlns="http://www.w3.org/2000/svg" viewBox="0 0 606 470"><defs><style>.cls-1{fill:#640d0d;}</style></defs><title>restaurant-reviews</title><g id="Layer_2" data-name="Layer 2"><g id="Layer_1-2" data-name="Layer 1"><path class="cls-1" d="M460.86,0H145.15A145.14,145.14,0,0,0,0,145.15V324.86A145.14,145.14,0,0,0,145.15,470H460.86A145.14,145.14,0,0,0,606,324.86V145.15A145.14,145.14,0,0,0,460.86,0Zm-48,241.22a71.15,71.15,0,0,1-21.24,21.9,2,2,0,0,0,.37,3.56q8.83,3.51,12.88,10.12,4.85,8,4.85,19.91A91.8,91.8,0,0,1,407.54,316q-2.21,10.18-6.27,25.23-2.52,9.72-4.7,19.13a71,71,0,0,0-2.2,15.67,25,25,0,0,0,3.3,12.85,18.55,18.55,0,0,0,4.8,5.54,2,2,0,0,1-.72,3.59q-15.83,4-26.18,4-24.46,0-24.46-21a72.2,72.2,0,0,1,2-15.84q2-8.93,5.8-23,4.4-14.75,6.58-25.09a90.26,90.26,0,0,0,2.2-18.49q0-21.31-18.82-21.32a44.86,44.86,0,0,0-9.06,1,2,2,0,0,0-1.55,1.57l-.64,3-5.15,24.22-18.67,88a2,2,0,0,1-2,1.61h-41a2,2,0,0,1-2-2.46l41.64-194.71a2.22,2.22,0,0,0,0-.77q-1.2-7.29-5.49-11.06-4.64-4.08-12.86-4.08a44.18,44.18,0,0,0-9.06,1,2,2,0,0,0-1.55,1.56l-18.34,86.42-6.12,28.87a2,2,0,0,1-2,1.61h-41a2,2,0,0,1-2-2.46L254,105.09a2,2,0,0,1,1.71-1.58l42.12-5.7a2,2,0,0,1,2.26,2.44l-14.24,67.13a1.63,1.63,0,0,0-.05.43,2,2,0,0,0,2,2q12.22,0,22.57-8.46a58.27,58.27,0,0,0,16.14-21.16,59.65,59.65,0,0,0,5.8-24.92q0-14.43-8.62-23.67t-25.86-9.25q-25.39,0-44.52,9.09a67.93,67.93,0,0,0-29.62,26.34Q213.19,135,213.2,158.56q0,11.59,2.19,16.14c.41.85.76,1.59,1.05,2.23a2,2,0,0,1-1.94,2.88q-14.62-.6-22.15-7-8.31-7-8.31-23.36,0-20.06,16.46-39t42.17-30.72Q268.37,68,294.08,68q23.51,0,39.49,6.9T357.4,93.2a43.23,43.23,0,0,1,7.84,24.92q0,14.73-9.1,29.46a68.87,68.87,0,0,1-8,10.61,2,2,0,0,0,1.5,3.41h1.18q23.51,0,39.5,6.89t23.82,18.34A43.26,43.26,0,0,1,422,211.75Q422,226.5,412.87,241.22Z"/><path class="cls-1" d="M341.2,194.68l-1.53,7.17c-6.45,30.21-12.95,60.43-19.31,90.64-1.11,5.25-1.59,10.5-2.42,15.75-1.51,9.65-3,19.3-4.59,29-2.06,12.22-4.27,24.46-6.41,36.69a27,27,0,0,1-4.46,11.26c-2.62,3.69-5.62,6-9.15,5.58-2.29-.3-3.72-1.95-4.65-4.26a16.5,16.5,0,0,1-.65-9.62c1-4.81,2.15-9.63,3.38-14.44,3.1-12.23,6.23-24.46,9.47-36.68,2.6-9.79,5.37-19.57,8.07-29.35.2-.75.39-1.51.61-2.34a23.79,23.79,0,0,1-3.13-.28c-2.79-.67-4.26-3.77-3.45-7.57,3.07-14.32,5.85-28.66,9.42-42.95a131.59,131.59,0,0,1,25.23-50.17c.87-1.09,1.78-1.63,2.73-1.22S341.49,193.34,341.2,194.68Z"/><path class="cls-1" d="M389,208.93a59.62,59.62,0,0,1-5.8,24.92A58.14,58.14,0,0,1,367.1,255q-10.35,8.46-22.57,8.46a2,2,0,0,1-2-2,2.18,2.18,0,0,1,.05-.43l7-33,2.09-9.87A87.44,87.44,0,0,0,353,203.07a45.78,45.78,0,0,0-1.29-11.24,31.5,31.5,0,0,0-3.57-8.67,21.75,21.75,0,0,0-2.67-3.5,2,2,0,0,1,1.36-3.42c2.52-.15,5.1-.22,7.72-.22q17.24,0,25.86,9.24T389,208.93Z"/><path class="cls-1" d="M289.2,112.21c-1,6-2,12.07-3,18.11-1.61,9.71-3.17,19.42-4.82,29.13-1.42,8.37-5.41,15-11.82,19.55a16.77,16.77,0,0,0-7.17,12.11c-3.1,23.72-7,47.51-11.18,71.33q-1.25,7.15-2.56,14.32a25.89,25.89,0,0,1-4.88,11.44c-4.76,6.15-10.65,6.2-12.86.11a18.67,18.67,0,0,1-.22-10.75c1.71-7.18,3.48-14.36,5.22-21.55l14.76-55.08c1-3.54,2.1-7.06,3.06-10.6,1.28-4.73.62-8.46-2-11-3.25-3.21-4.88-7.64-4.78-13.46a41.89,41.89,0,0,1,1.81-9.54q4.89-18.84,9.8-37.67c.62-2.36,1.24-4.73,1.87-7.08s2.33-4,4-3.92,2.65,1.89,2.05,4.32c-1.94,7.8-3.91,15.59-5.86,23.38q-2,8-4,15.89c-.54,2.17.35,3.87,1.95,3.91s3.16-1.55,3.68-3.78q4.56-19.59,9.11-39.18c.73-3.12,3-5.09,5.06-4.4,1.42.47,2,2,1.59,4.26q-1.57,8.3-3.18,16.57-2.18,11.24-4.35,22.48c-.48,2.49.41,4.17,2.14,4s3.19-1.9,3.63-4.42q3.33-19.31,6.69-38.6a5.37,5.37,0,0,1,3.06-4.29,2.28,2.28,0,0,1,3.2,1.85A8,8,0,0,1,289.2,112.21Z"/></g></g></svg>