<svg xmlns="http://www.w3.org/2000/svg" viewBox="0 0 237.91 334.08"><defs><style>.cls-1{fill:#640d0d;}</style></defs><title>restaurant-reviews-neg</title><g id="Layer_2" data-name="Layer 2"><g id="Layer_1-2" data-name="Layer 1"><path class="cls-1" d="M207.58,195.16a71.4,71.4,0,0,0,21.25-21.9q9.07-14.73,9.08-29.47a43.18,43.18,0,0,0-7.84-24.92q-7.83-11.45-23.82-18.34t-39.49-6.89h-1.19a2,2,0,0,1-1.5-3.41,69.57,69.57,0,0,0,8-10.61q9.09-14.73,9.09-29.46a43.21,43.21,0,0,0-7.84-24.93Q165.52,13.79,149.53,6.9T110,0Q84.32,0,58.63,11.75T16.46,42.47Q0,61.44,0,81.5q0,16.31,8.31,23.35,7.53,6.41,22.15,7A2,2,0,0,0,32.4,109c-.3-.64-.64-1.39-1-2.23q-2.19-4.55-2.2-16.15,0-23.5,10.51-40.75A67.92,67.92,0,0,1,69.28,23.51q19.13-9.09,44.51-9.09,17.24,0,25.87,9.25t8.62,23.66a59.66,59.66,0,0,1-5.8,24.93,58.06,58.06,0,0,1-16.15,21.15q-10.35,8.48-22.57,8.47a2.06,2.06,0,0,1-2-2.46L116,32.29a2,2,0,0,0-2.27-2.44L71.64,35.54a2,2,0,0,0-1.72,1.59L28.11,232.65a2,2,0,0,0,2,2.46h41a2,2,0,0,0,2-1.62l6.12-28.86,18.34-86.42a2,2,0,0,1,1.55-1.56,44.11,44.11,0,0,1,9.06-1q8.22,0,12.85,4.08,4.29,3.77,5.49,11.05a2,2,0,0,1,0,.78L84.83,326.29a2,2,0,0,0,2,2.46h41a2.05,2.05,0,0,0,2-1.61l18.67-88,5.14-24.23.65-3a2,2,0,0,1,1.54-1.57,45,45,0,0,1,9.07-1q18.81,0,18.81,21.32a90.27,90.27,0,0,1-2.19,18.49q-2.2,10.35-6.58,25.08-3.76,14.1-5.81,23a72.13,72.13,0,0,0-2,15.84q0,21,24.45,21,10.36,0,26.18-4a2,2,0,0,0,.73-3.59,18.58,18.58,0,0,1-4.81-5.54,25.05,25.05,0,0,1-3.29-12.85,70.85,70.85,0,0,1,2.19-15.67q2.19-9.42,4.7-19.13,4.08-15,6.28-25.23a92.54,92.54,0,0,0,2.19-19.28q0-11.91-4.86-19.91c-2.68-4.42-7-7.78-12.88-10.12A2,2,0,0,1,207.58,195.16ZM97.37,91.49C96,99.86,92,106.43,85.55,111a16.74,16.74,0,0,0-7.17,12.11c-3.1,23.72-7,47.51-11.18,71.33Q66,201.64,64.63,208.8a25.92,25.92,0,0,1-4.87,11.44c-4.76,6.15-10.66,6.2-12.87.11a18.67,18.67,0,0,1-.21-10.75c1.71-7.18,3.48-14.37,5.22-21.55L66.66,133c1-3.54,2.1-7.06,3-10.6,1.29-4.74.63-8.46-2-11-3.25-3.2-4.89-7.63-4.78-13.45a41.76,41.76,0,0,1,1.8-9.54l9.81-37.67c.61-2.36,1.23-4.73,1.86-7.09s2.34-4,4-3.91,2.65,1.89,2.05,4.32q-2.91,11.7-5.87,23.38c-1.33,5.3-2.67,10.59-4,15.89-.54,2.17.34,3.87,2,3.91s3.16-1.56,3.68-3.79q4.56-19.58,9.11-39.17c.72-3.12,3-5.09,5.06-4.4,1.42.46,2,2,1.58,4.26-1,5.53-2.11,11-3.17,16.56Q88.7,71.9,86.51,83.14c-.47,2.49.42,4.16,2.15,4s3.19-1.9,3.62-4.42L99,44.16A5.4,5.4,0,0,1,102,39.87a2.28,2.28,0,0,1,3.2,1.85,8,8,0,0,1-.08,2.53c-1,6-2,12.07-3,18.11C100.58,72.07,99,81.78,97.37,91.49Zm59.79,35.23q-.78,3.59-1.53,7.16-9.69,45.33-19.31,90.65c-1.11,5.25-1.6,10.5-2.42,15.75-1.51,9.65-3,19.3-4.6,29-2.06,12.23-4.26,24.47-6.41,36.7a26.94,26.94,0,0,1-4.45,11.26c-2.63,3.69-5.62,6-9.15,5.57-2.3-.3-3.73-1.94-4.65-4.25a16.5,16.5,0,0,1-.66-9.62c1-4.81,2.16-9.63,3.38-14.44,3.11-12.23,6.24-24.46,9.47-36.68,2.6-9.79,5.37-19.57,8.07-29.35.21-.75.4-1.51.62-2.35a20.8,20.8,0,0,1-3.13-.28c-2.79-.67-4.27-3.77-3.46-7.56,3.08-14.32,5.85-28.66,9.43-43a131.59,131.59,0,0,1,25.23-50.17c.86-1.09,1.77-1.63,2.73-1.22S157.44,125.38,157.16,126.72Zm42,39.17a58.3,58.3,0,0,1-16.14,21.17q-10.35,8.46-22.58,8.46a2,2,0,0,1-2-2,2.12,2.12,0,0,1,0-.42l7-33,2.09-9.86A88.63,88.63,0,0,0,169,135.11a45.28,45.28,0,0,0-1.3-11.24,31.06,31.06,0,0,0-3.56-8.67,21.32,21.32,0,0,0-2.67-3.5,2,2,0,0,1,1.36-3.43q3.78-.21,7.71-.21,17.25,0,25.87,9.24T205,141A59.62,59.62,0,0,1,199.2,165.89Z"/></g></g></svg>